<?xml version="1.0" encoding="utf-8"?>
<!-- Designed by Vexels.com - 2019 All Rights Reserved - https://vexels.com/terms-and-conditions/  -->
<svg version="1.1" id="Layer_1" xmlns="http://www.w3.org/2000/svg" xmlns:xlink="http://www.w3.org/1999/xlink" x="0px" y="0px"
	 viewBox="0 0 1200 1200" enable-background="new 0 0 1200 1200" xml:space="preserve">
<g>
	<path fill="#fff" d="M424.005,629.869L56.114,311.3c-2.393-2.072-6.114-0.372-6.114,2.794V893.8c0,2.922,3.231,4.688,5.69,3.111
		l370.733-237.712c1.302-0.835,1.916-2.396,1.582-3.906c-1.7-7.69-2.612-15.287-2.753-22.74
		C425.232,631.517,424.788,630.547,424.005,629.869z"/>
	<path fill="red" d="M722.655,604.252c-41.45-70.115-101.236-2.139-120.837,25.586c-19.601-27.724-79.387-95.701-120.837-25.586
		c-41.851,70.792,114.969,179.624,120.837,182.705C607.381,783.372,764.506,675.044,722.655,604.252z"/>
	<path fill="#fff" d="M759.816,703.745c-1.877-1.225-4.362-0.658-5.541,1.248c-9.534,15.412-22.281,31.887-39.049,49.443
		c-40.583,42.492-86.595,73.166-87.034,73.447l-21.917,14.127c-1.204,0.776-2.733,0.844-4.002,0.178l-23.091-12.123
		c-0.992-0.521-85.852-54.477-129.077-123.436c-1.177-1.877-3.63-2.448-5.495-1.253L65.704,948.328
		c-2.532,1.624-2.461,5.451,0.213,6.829c4.017,2.07,8.573,3.241,13.403,3.241h521.145h520.213c4.895,0,9.507-1.203,13.562-3.327
		c2.648-1.387,2.732-5.175,0.229-6.809L759.816,703.745z"/>
	<path fill="#fff" d="M778.504,632.541c-0.144,6.63-0.922,13.614-2.484,20.961c-0.298,1.403,0.272,2.855,1.473,3.639
		l367.145,239.617c2.306,1.505,5.362-0.15,5.362-2.903V313.91c0-2.978-3.507-4.57-5.749-2.61L779.671,630.031
		C778.941,630.669,778.525,631.573,778.504,632.541z"/>
	<g>
		<path fill="#fff" d="M524.487,524.833c28.626,0,54.057,13.748,74.323,30.331c1.763,1.442,4.258,1.442,6.021,0
			c20.263-16.583,45.695-30.331,74.316-30.331c19.089,0,54.506,6.586,82.194,49.443c1.551,2.401,4.899,2.828,7.05,0.947
			l368.057-321.773c2.396-2.095,2.108-5.952-0.612-7.606c-4.421-2.688-9.604-4.242-15.158-4.242H79.321
			c-5.519,0-10.672,1.536-15.075,4.193c-2.736,1.651-3.016,5.532-0.601,7.624L435.272,575.22c2.153,1.865,5.487,1.433,7.033-0.96
			C469.992,531.418,505.402,524.833,524.487,524.833z"/>
		<path fill="#fff" d="M524.487,524.833c28.626,0,54.057,13.748,74.323,30.331c1.763,1.442,4.258,1.442,6.021,0
			c20.263-16.583,45.695-30.331,74.316-30.331c19.089,0,54.506,6.586,82.194,49.443c1.551,2.401,4.899,2.828,7.05,0.947
			l368.057-321.773c2.396-2.095,2.108-5.952-0.612-7.606c-4.421-2.688-9.604-4.242-15.158-4.242H79.321
			c-5.519,0-10.672,1.536-15.075,4.193c-2.736,1.651-3.016,5.532-0.601,7.624L435.272,575.22c2.153,1.865,5.487,1.433,7.033-0.96
			C469.992,531.418,505.402,524.833,524.487,524.833z"/>
		<path fill="#fff" d="M524.487,524.833c28.626,0,54.057,13.748,74.323,30.331c1.763,1.442,4.258,1.442,6.021,0
			c20.263-16.583,45.695-30.331,74.316-30.331c19.089,0,54.506,6.586,82.194,49.443c1.551,2.401,4.899,2.828,7.05,0.947
			l368.057-321.773c2.396-2.095,2.108-5.952-0.612-7.606c-4.421-2.688-9.604-4.242-15.158-4.242H79.321
			c-5.519,0-10.672,1.536-15.075,4.193c-2.736,1.651-3.016,5.532-0.601,7.624L435.272,575.22c2.153,1.865,5.487,1.433,7.033-0.96
			C469.992,531.418,505.402,524.833,524.487,524.833z"/>
	</g>
</g>
</svg>
