<?xml version="1.0" encoding="utf-8"?>
<!-- Designed by Vexels.com - 2016 All Rights Reserved - https://vexels.com/terms-and-conditions/  -->

<svg version="1.1" id="Capa_1" xmlns="http://www.w3.org/2000/svg" xmlns:xlink="http://www.w3.org/1999/xlink" x="0px" y="0px"
	 width="1200px" height="1200px" viewBox="0 0 1200 1200" enable-background="new 0 0 1200 1200" xml:space="preserve">
<g>
	<path fill="white" d="M162.573,1136.711c4.827-5.615,7.224-13.575,10.182-20.278c6.831-15.575,13.752-31.111,21.101-46.468
		c7.006-14.529,14.489-28.894,23.412-42.384c11.705-17.708,33.068-26.797,52.124-34.411c49.86-20.016,104.948-22.151,157.593-28.718
		c61.265-7.657,122.526-15.927,182.876-29.239c65.657-14.489,144.674-42.335,186.008-98.554
		c11.095-15.1,15.145-32.979,12.487-51.298c-0.781-5.263-7.528-8.354-12.182-6.918c-40.729,12.355-82.76,20.056-125.225,22.494
		c-34.853,2.005-72.879,0.479-105.47-13.662c51.561-15.099,105.076-22.191,157.507-33.763
		c54.347-12.054,103.993-31.458,150.419-62.133c74.4-49.079,163.032-131.751,153.851-229.692
		c-0.689-7.572-7.832-12.228-14.878-8.572c-84.974,43.945-180.44,86.889-277.729,84.888c41.899-12.007,82.626-27.671,121.437-48.123
		c57.651-30.367,108.691-71.965,154.42-118.043c41.337-41.639,77.798-88.239,105.298-140.147
		c26.148-49.472,44.209-108.125,28.109-163.642c-2.219-7.572-10.967-9.097-16.58-4.353c-84.146,71.27-174.261,134.36-272.809,184.18
		c-88.806,44.859-183.487,74.228-276.729,108.08C408.54,417.438,227.228,493.668,118.889,644.952
		c-63.918,89.197-79.322,203.151-62.656,309.93c0.089,0.651,0.217,1.348,0.305,1.999c0.134,0.566,0.309,1.174,0.435,1.74v0.042
		c7.53,30.027,16.144,59.007,29.676,87.021C93.133,1059.13,146.864,1154.941,162.573,1136.711z"/>
</g>
</svg>
